<?xml version="1.0" encoding="UTF-8"?>
<svg id="Layer_1" data-name="Layer 1" xmlns="http://www.w3.org/2000/svg" version="1.1" viewBox="0 0 14400 14400">
  <defs>
    <style>
      .cls-1 {
        fill: #000;
      }

      .cls-1, .cls-2, .cls-3, .cls-4 {
        stroke-width: 0px;
      }

      .cls-2 {
        fill: #99999a;
      }

      .cls-2, .cls-3, .cls-4 {
        fill-rule: evenodd;
      }

      .cls-3 {
        fill: #4d4d4d;
      }

      .cls-4 {
        fill: #2ba8dd;
      }
    </style>
  </defs>
  <rect class="cls-1" x="6555.5" y="6839.5" width="1284" height="720"/>
  <g>
    <path class="cls-3" d="M6723.38,7271.31h64.48c-5.85,9.06-11.05,17.14-16.35,25.35h-69.47s-.13-123.74.05-182.53c.04-14.05,12.6-37.58,26.77-37.58,25.21-.08,50.42-.04,75.98-.04v22.97c-13.02,0-25.9,0-38.77,0-8.07,0-16.14.31-24.19,0-5.52-.21-9.36,1.99-12.29,6.35-3.61,5.38-6.2,11.24-6.29,17.74-.22,15.48-.07,30.96-.07,47.36h57.97v22.47h-57.82v77.91Z"/>
    <path class="cls-3" d="M7026.71,7297.92c-18.27,0-24.68-9.33-24.51-20.33.54-36.71.19-73.42.21-110.14,0-12.29,7.37-19.03,19.64-19.75,22.29-1.31,29.73,6.31,29.14,28.8-.87,33.08-.41,66.2-.11,99.31.09,10.38-4.22,22.11-24.37,22.11ZM7035.65,7222.96c0-17.16-.01-34.32,0-51.48,0-4.28-.84-8.01-5.35-9.83-7.05-2.86-12.7,1.59-12.73,10.44-.08,31.99-.04,63.98-.02,95.97,0,2.96-.09,5.95.28,8.87.71,5.57,4.79,8.37,10.29,7.52,5.82-.9,7.51-4.77,7.5-10-.01-17.16,0-34.32.01-51.48Z"/>
    <path class="cls-3" d="M6871.47,7225.99c3.95,4.49,5.12,9.43,5.08,14.97-.14,18.41-.05,36.82-.05,55.56h-15.29c0-16.53.03-33.25,0-49.97-.03-12.41-2.66-14.56-15.9-12.78v62.76c-15.1.21-15.11,0-14.83,0v-147.43c10.61,0,20.98-.54,31.26.17,8.11.56,14.61,8.39,14.71,16.66.2,16.33.06,32.67.03,49,0,4.19-1.27,7.91-5,11.06ZM6845.27,7218.7c12.12,1.11,15.55-.47,15.73-7.91.31-13.1.09-26.21.13-39.32.01-4.05-2.08-6.45-5.9-6.93-3.24-.41-6.65-1.43-9.96.45v53.71Z"/>
    <path class="cls-4" d="M7104.21,7190.33v-90.83h-52.81v-22.49h132.27l-16.19,22.47h-38.74v54.64l-24.54,36.22Z"/>
    <path class="cls-3" d="M7372.81,7296.56h-14.54v-64.02c0-3.08-2.58-3.4-2.58-3.4h-16.64v67.41h-15.96v-143.82c0-2.02.66-3.57,3-3.57h12.86v62.05c0,2.76,3.49,2.7,3.49,2.7h16.05v-64.75h11.92s2.42,0,2.42,2.09v145.31Z"/>
    <path class="cls-3" d="M6939.1,7217.49c7.02,0,12.93-.02,18.83,0,5.03.02,7.39,2.92,7.4,7.63.07,18.66.07,37.32-.08,55.97-.04,4.4-2.37,8.04-5.46,11.08-8.28,8.12-18.5,6.41-28.19,4.57-6.48-1.23-10.93-6.15-12.25-13.05-.39-2.06-.53-4.2-.53-6.3-.06-36.89-.09-73.78-.09-110.68,0-10.94,7.78-18.75,18.76-18.9,3.39-.05,6.79-.16,10.18,0,9.31.44,17.2,8.32,17.72,17.6,0,0-.01,12.74,0,14.43l-15.26,9.78v-16.27c-.04-7.67-2.93-12.22-7.96-12.41-5.25-.2-8.17,4.02-8.2,12.05-.04,12.3-.01,24.6-.01,36.89,0,20.57-.02,41.13.03,61.69,0,2.31.13,4.68.65,6.91.86,3.7,3.25,5.84,7.25,5.83,4.21,0,6.69-2.18,7.7-6.16.26-1.02.53-2.08.53-3.12.04-13.77.02-27.54.02-41.33-6.51-3.22-8.17-9.4-11.04-16.22Z"/>
    <path class="cls-3" d="M7286.98,7194.56c-3.79,2.08-8.67,3.97-14.85,6.84,0-8.95.05-17.59-.03-26.23-.03-2.52-.24-5.08-.74-7.55-.88-4.3-4.2-5.85-8.07-5.56-3.86.3-6.83,2.3-7.16,6.7-.11,1.48-.13,2.97-.14,4.45,0,33.53,0,67.06,0,100.58,0,7.32,2.47,10.57,7.91,10.57,5.12,0,8.01-3.74,8.22-10.7v-22.02s10.45-5.82,14.91-7.55v35.74c-.15,10.74-8.48,17.88-20.48,17.95-17.15.1-25.73-5.43-25.79-17.48-.21-38.19-.17-76.39-.06-114.58.03-9.89,7.94-17.76,17.83-17.85,8.12-.08,16.67-1.66,23.19,5.62,3.24,3.62,5.46,7.39,5.26,12.4v28.66Z"/>
    <path class="cls-4" d="M7654.94,7236.76c-2.19,1.2-5.01,2.29-8.57,3.95,0-5.17.03-10.15-.02-15.14-.01-1.46-.14-2.93-.43-4.36-.51-2.48-2.42-3.38-4.66-3.21-2.23.17-3.94,1.33-4.13,3.87-.07.85-.08,1.71-.08,2.57,0,19.35,0,38.7,0,58.05,0,4.23,1.42,6.1,4.57,6.1,2.95,0,4.62-2.16,4.75-6.17v-12.71s6.03-3.36,8.6-4.36v20.63c-.09,6.2-4.89,10.32-11.82,10.36-9.9.06-14.85-3.13-14.89-10.09-.12-22.04-.1-44.08-.04-66.13.02-5.71,4.58-10.25,10.29-10.3,4.69-.04,9.62-.96,13.38,3.24,1.87,2.09,3.15,4.26,3.04,7.15v16.54Z"/>
    <path class="cls-3" d="M7216.84,7281.51c-1.58,7.37-5.65,11.24-10.11,15.1h-37.86v-144.3c0-.88,1.07-2.61,3.11-2.61,10.17.03,41.74-.03,41.74-.03-1.5,6.67-6.45,13.36-13.56,14.52h-15.85c-1.59,0-.73,2.77-1.06,5.19v42.21h24.19c-1.89,9.75-6.99,14.44-15.94,15.16h-5.33c-2.17,0-2.21,1.65-2.21,3.59v51.16h32.89Z"/>
    <path class="cls-4" d="M7690.38,7296.34c-10.53,0-14.22-5.38-14.12-11.71.31-21.15.11-42.3.12-63.46,0-7.08,4.25-10.96,11.32-11.38,12.84-.76,17.13,3.64,16.79,16.59-.5,19.06-.24,38.14-.06,57.22.05,5.98-2.43,12.74-14.04,12.74ZM7695.53,7253.16c0-9.89,0-19.77,0-29.66,0-2.47-.48-4.61-3.08-5.67-4.06-1.65-7.32.92-7.33,6.01-.05,18.43-.02,36.86-.01,55.29,0,1.71-.05,3.43.16,5.11.41,3.21,2.76,4.83,5.93,4.33,3.35-.52,4.33-2.75,4.32-5.76,0-9.89,0-19.77,0-29.66Z"/>
    <path class="cls-4" d="M7528.05,7287.44c-.93,4.34-3.33,6.63-5.96,8.9h-22.32v-85.08c0-.52.63-1.54,1.83-1.54,6,.02,24.61-.02,24.61-.02-.89,3.93-3.8,7.87-8,8.56h-9.34c-.94,0-.43,1.63-.63,3.06v24.89h14.26c-1.11,5.75-4.12,8.51-9.4,8.93h-3.14c-1.28,0-1.3.97-1.3,2.12v30.16h19.39Z"/>
    <path class="cls-4" d="M7602.71,7296.34h-7.7v-86.55h7.7v86.55Z"/>
    <path class="cls-4" d="M7466.66,7211.54c-3.56,16.16-7.19,32.67-10.81,49.11-3.62-16.49-7.23-32.97-10.74-48.97-.14-.63-.7-1.9-2.13-1.9h-5.99v86.55h7.7v-50.61c2.41,10.96,4.51,20.54,6.9,31.45,1.25,3.21,6.59,5.59,7.62,3.92,2.42-10.99,5.42-24.53,7.84-35.5v50.74h7.7v-86.55h-6.3c-1.2,0-1.66,1.17-1.79,1.75Z"/>
    <polygon class="cls-2" points="7114.76 7174.62 7114.76 7292.66 7101.79 7292.66 7101.79 7193.68 7095.38 7203.1 7095.38 7297.7 7120.71 7297.7 7120.71 7165.86 7114.76 7174.62"/>
    <path class="cls-4" d="M7538.5,7296.34h8.04c3.25-10.75,6.52-21.59,9.81-32.47,3.29,10.88,6.56,21.72,9.81,32.47h8.04c-4.58-15.16-9.22-30.5-13.83-45.78,4.11-13.6,8.21-27.18,12.26-40.57h-8.04c-2.72,8.99-5.47,18.1-8.24,27.26-2.77-9.16-5.52-18.27-8.24-27.26h-8.04c4.05,13.39,8.15,26.97,12.26,40.57-4.62,15.28-9.25,30.62-13.83,45.78Z"/>
    <path class="cls-4" d="M7520.3,7205.36c1.02-3.39,2.05-6.79,3.07-10.16h-8.04c-1.02,3.37-2.04,6.76-3.07,10.16h8.04Z"/>
  </g>
</svg>